<svg width="287" height="97" viewBox="0 0 287 97" fill="none" xmlns="http://www.w3.org/2000/svg">
<path d="M125.928 58.088L126.576 57.62C127.392 57.14 127.968 56.9 128.304 56.9C129.048 56.9 129.852 57.572 130.716 58.916C131.244 59.756 131.508 60.428 131.508 60.932C131.508 61.436 131.34 61.856 131.004 62.192C130.692 62.528 130.32 62.828 129.888 63.092C129.456 63.356 129.036 63.608 128.628 63.848C128.244 64.088 127.44 64.4 126.216 64.784C124.992 65.168 123.804 65.36 122.652 65.36C121.524 65.36 120.372 65.216 119.196 64.928C118.044 64.616 116.844 64.112 115.596 63.416C114.372 62.696 113.268 61.832 112.284 60.824C111.3 59.792 110.484 58.484 109.836 56.9C109.212 55.292 108.9 53.552 108.9 51.68C108.9 49.808 109.212 48.116 109.836 46.604C110.46 45.068 111.252 43.808 112.212 42.824C113.196 41.816 114.312 40.976 115.56 40.304C117.912 39.008 120.276 38.36 122.652 38.36C123.78 38.36 124.92 38.54 126.072 38.9C127.248 39.236 128.136 39.584 128.736 39.944L129.6 40.448C130.032 40.712 130.368 40.928 130.608 41.096C131.232 41.6 131.544 42.176 131.544 42.824C131.544 43.448 131.292 44.108 130.788 44.804C129.852 46.1 129.012 46.748 128.268 46.748C127.836 46.748 127.224 46.484 126.432 45.956C125.424 45.14 124.08 44.732 122.4 44.732C120.84 44.732 119.304 45.272 117.792 46.352C117.072 46.88 116.472 47.624 115.992 48.584C115.512 49.544 115.272 50.636 115.272 51.86C115.272 53.06 115.512 54.14 115.992 55.1C116.472 56.06 117.084 56.816 117.828 57.368C119.292 58.424 120.816 58.952 122.4 58.952C123.144 58.952 123.84 58.856 124.488 58.664C125.16 58.472 125.64 58.28 125.928 58.088ZM144.386 46.1C146.786 46.1 148.778 47.012 150.362 48.836C151.97 50.66 152.774 52.892 152.774 55.532V61.868C152.774 62.42 152.75 62.84 152.702 63.128C152.678 63.392 152.57 63.704 152.378 64.064C152.066 64.688 151.142 65 149.606 65C148.142 65 147.23 64.688 146.87 64.064C146.678 63.704 146.558 63.38 146.51 63.092C146.486 62.804 146.474 62.372 146.474 61.796V55.496C146.474 54.512 146.198 53.744 145.646 53.192C145.094 52.64 144.386 52.364 143.522 52.364C142.682 52.364 141.938 52.628 141.29 53.156C140.642 53.66 140.27 54.236 140.174 54.884V61.868C140.174 62.42 140.15 62.84 140.102 63.128C140.078 63.392 139.97 63.704 139.778 64.064C139.466 64.688 138.542 65 137.006 65C135.494 65 134.57 64.676 134.234 64.028C134.066 63.668 133.958 63.356 133.91 63.092C133.886 62.828 133.874 62.408 133.874 61.832V40.304C133.874 39.752 133.886 39.344 133.91 39.08C133.958 38.792 134.066 38.48 134.234 38.144C134.57 37.496 135.506 37.172 137.042 37.172C138.554 37.172 139.466 37.496 139.778 38.144C139.97 38.504 140.078 38.828 140.102 39.116C140.15 39.38 140.174 39.788 140.174 40.34V48.296C141.374 46.832 142.778 46.1 144.386 46.1ZM173.958 53.264C173.958 54.728 173.586 55.82 172.842 56.54C172.122 57.236 171.318 57.584 170.43 57.584H161.898C161.898 58.256 162.294 58.82 163.086 59.276C163.878 59.732 164.67 59.96 165.462 59.96C166.854 59.96 167.946 59.816 168.738 59.528L169.134 59.384C169.71 59.12 170.19 58.988 170.574 58.988C171.342 58.988 172.002 59.528 172.554 60.608C172.866 61.256 173.022 61.808 173.022 62.264C173.022 64.4 170.466 65.468 165.354 65.468C163.578 65.468 161.994 65.168 160.602 64.568C159.234 63.944 158.166 63.128 157.398 62.12C155.886 60.176 155.13 58.004 155.13 55.604C155.13 52.58 156.102 50.168 158.046 48.368C160.014 46.544 162.462 45.632 165.39 45.632C168.726 45.632 171.174 46.808 172.734 49.16C173.55 50.408 173.958 51.776 173.958 53.264ZM166.362 54.308C167.274 54.308 167.73 53.924 167.73 53.156C167.73 52.604 167.514 52.16 167.082 51.824C166.674 51.488 166.074 51.32 165.282 51.32C164.514 51.32 163.746 51.644 162.978 52.292C162.21 52.916 161.826 53.588 161.826 54.308H166.362ZM182.247 55.532C182.247 56.54 182.583 57.332 183.255 57.908C183.927 58.46 184.635 58.736 185.379 58.736C186.147 58.736 186.855 58.52 187.503 58.088C188.175 57.632 188.715 57.404 189.123 57.404C189.843 57.404 190.719 58.04 191.751 59.312C192.303 60.008 192.579 60.632 192.579 61.184C192.579 62.096 191.919 62.948 190.599 63.74C189.231 64.7 187.551 65.18 185.559 65.18C183.327 65.18 181.179 64.376 179.115 62.768C178.131 62 177.327 60.98 176.703 59.708C176.079 58.412 175.767 56.996 175.767 55.46C175.767 53.9 176.079 52.496 176.703 51.248C177.327 49.976 178.131 48.956 179.115 48.188C181.107 46.604 183.231 45.812 185.487 45.812C186.399 45.812 187.287 45.944 188.151 46.208C189.015 46.448 189.651 46.688 190.059 46.928L190.635 47.288C191.067 47.576 191.403 47.804 191.643 47.972C192.267 48.452 192.579 49.004 192.579 49.628C192.579 50.228 192.327 50.912 191.823 51.68C190.959 53 190.131 53.66 189.339 53.66C188.883 53.66 188.235 53.396 187.395 52.868C186.963 52.46 186.339 52.256 185.523 52.256C184.731 52.256 183.987 52.544 183.291 53.12C182.595 53.696 182.247 54.5 182.247 55.532ZM206.065 55.496L210.853 59.456C211.453 59.96 211.825 60.344 211.969 60.608C212.137 60.872 212.221 61.124 212.221 61.364C212.221 61.94 211.849 62.72 211.105 63.704C210.289 64.712 209.569 65.216 208.945 65.216C208.417 65.216 207.685 64.868 206.749 64.172L206.389 63.92C205.837 63.464 204.985 62.672 203.833 61.544C202.681 60.392 201.805 59.576 201.205 59.096V61.868C201.205 62.42 201.181 62.84 201.133 63.128C201.109 63.392 201.001 63.704 200.809 64.064C200.497 64.688 199.573 65 198.037 65C196.525 65 195.601 64.676 195.265 64.028C195.097 63.668 194.989 63.356 194.941 63.092C194.917 62.804 194.905 62.384 194.905 61.832V40.268C194.905 39.716 194.917 39.308 194.941 39.044C194.989 38.756 195.097 38.432 195.265 38.072C195.601 37.424 196.537 37.1 198.073 37.1C199.225 37.1 200.041 37.304 200.521 37.712C200.929 38.048 201.145 38.576 201.169 39.296C201.193 39.512 201.205 39.848 201.205 40.304V51.716C201.637 51.356 202.285 50.744 203.149 49.88C204.037 49.016 204.697 48.404 205.129 48.044L205.561 47.756C206.401 47.108 207.121 46.784 207.721 46.784C208.321 46.784 209.005 47.276 209.773 48.26C210.565 49.22 210.961 49.976 210.961 50.528C210.961 51.08 210.517 51.728 209.629 52.472L206.065 55.496ZM242.25 39.62C242.442 39.98 242.55 40.304 242.574 40.592C242.622 40.88 242.646 41.3 242.646 41.852V61.832C242.646 63.488 242.19 64.46 241.278 64.748C240.822 64.892 240.246 64.964 239.55 64.964C238.854 64.964 238.302 64.904 237.894 64.784C237.486 64.664 237.174 64.52 236.958 64.352C236.742 64.184 236.574 63.944 236.454 63.632C236.334 63.224 236.274 62.6 236.274 61.76V49.7C235.674 50.444 234.798 51.632 233.646 53.264C232.494 54.872 231.762 55.88 231.45 56.288C231.138 56.696 230.922 56.984 230.802 57.152C230.682 57.296 230.382 57.512 229.902 57.8C229.446 58.064 228.942 58.196 228.39 58.196C227.862 58.196 227.37 58.076 226.914 57.836C226.482 57.572 226.17 57.32 225.978 57.08L225.69 56.684C225.21 56.084 224.262 54.812 222.846 52.868C221.43 50.9 220.662 49.844 220.542 49.7V61.832C220.542 62.384 220.518 62.804 220.47 63.092C220.446 63.356 220.338 63.656 220.146 63.992C219.786 64.64 218.85 64.964 217.338 64.964C215.874 64.964 214.962 64.64 214.602 63.992C214.41 63.656 214.29 63.344 214.242 63.056C214.218 62.768 214.206 62.336 214.206 61.76V41.78C214.206 41.228 214.218 40.82 214.242 40.556C214.29 40.268 214.41 39.944 214.602 39.584C214.962 38.96 215.898 38.648 217.41 38.648C218.058 38.648 218.61 38.732 219.066 38.9C219.546 39.044 219.858 39.2 220.002 39.368L220.218 39.584L228.39 50.312C232.47 44.912 235.194 41.348 236.562 39.62C236.97 38.972 237.93 38.648 239.442 38.648C240.978 38.648 241.914 38.972 242.25 39.62ZM257.842 48.044C257.986 46.7 258.934 46.028 260.686 46.028C261.622 46.028 262.318 46.1 262.774 46.244C263.23 46.388 263.542 46.64 263.71 47C263.902 47.36 264.01 47.684 264.034 47.972C264.082 48.236 264.106 48.644 264.106 49.196V61.796C264.106 62.348 264.082 62.768 264.034 63.056C264.01 63.32 263.914 63.632 263.746 63.992C263.41 64.616 262.582 64.928 261.262 64.928C259.966 64.928 259.09 64.772 258.634 64.46C258.202 64.124 257.95 63.644 257.878 63.02C256.99 64.292 255.502 64.928 253.414 64.928C251.35 64.928 249.43 63.98 247.654 62.084C245.878 60.188 244.99 57.992 244.99 55.496C244.99 52.976 245.878 50.78 247.654 48.908C249.454 47.012 251.422 46.064 253.558 46.064C254.374 46.064 255.118 46.208 255.79 46.496C256.462 46.784 256.93 47.06 257.194 47.324C257.458 47.564 257.674 47.804 257.842 48.044ZM251.29 55.532C251.29 56.324 251.602 57.044 252.226 57.692C252.85 58.316 253.606 58.628 254.494 58.628C255.382 58.628 256.114 58.304 256.69 57.656C257.29 57.008 257.59 56.3 257.59 55.532C257.59 54.74 257.302 54.008 256.726 53.336C256.174 52.664 255.418 52.328 254.458 52.328C253.522 52.328 252.754 52.664 252.154 53.336C251.578 54.008 251.29 54.74 251.29 55.532ZM266.975 70.148V49.124C266.975 48.572 266.987 48.164 267.011 47.9C267.059 47.636 267.167 47.336 267.335 47C267.671 46.352 268.475 46.028 269.747 46.028C271.019 46.028 271.871 46.196 272.303 46.532C272.759 46.844 273.023 47.312 273.095 47.936C274.007 46.688 275.435 46.064 277.379 46.064C279.347 46.064 281.207 46.988 282.959 48.836C284.711 50.684 285.587 52.832 285.587 55.28C285.587 57.728 284.711 59.876 282.959 61.724C281.231 63.572 279.383 64.496 277.415 64.496C275.447 64.496 274.019 63.944 273.131 62.84V70.112C273.131 70.664 273.107 71.072 273.059 71.336C273.035 71.6 272.927 71.9 272.735 72.236C272.567 72.596 272.267 72.848 271.835 72.992C271.403 73.136 270.815 73.208 270.071 73.208C269.327 73.208 268.727 73.136 268.271 72.992C267.839 72.848 267.527 72.608 267.335 72.272C267.167 71.936 267.059 71.636 267.011 71.372C266.987 71.108 266.975 70.7 266.975 70.148ZM274.103 53.192C273.551 53.84 273.275 54.548 273.275 55.316C273.275 56.084 273.551 56.792 274.103 57.44C274.679 58.064 275.399 58.376 276.263 58.376C277.151 58.376 277.895 58.064 278.495 57.44C279.119 56.816 279.431 56.108 279.431 55.316C279.431 54.524 279.143 53.816 278.567 53.192C277.991 52.544 277.235 52.22 276.299 52.22C275.387 52.22 274.655 52.544 274.103 53.192Z" fill="url(#paint0_linear_1_67)"/>
<path d="M67.2687 16.246C67.27 23.1924 65.9029 30.0711 63.2455 36.4892C60.5881 42.9073 56.6925 48.739 51.7811 53.6513C46.8697 58.5637 41.0387 62.4604 34.6211 65.119C28.2035 67.7776 21.3251 69.146 14.3787 69.146C13.4857 69.146 12.5937 69.128 11.7097 69.071C11.4097 69.062 11.1097 69.043 10.8097 69.024C8.31139 66.3021 6.19224 63.2552 4.50965 59.966L4.49965 59.957C4.49965 59.948 4.49965 59.948 4.49065 59.929V59.919C4.48703 59.9024 4.48061 59.8865 4.47165 59.872H4.46265C4.44467 59.8539 4.43159 59.8315 4.42466 59.807C3.73402 58.4386 3.11942 57.0331 2.58366 55.597V55.578C-0.167529 48.1802 -0.734768 40.1476 0.949481 32.4366C2.63373 24.7255 6.49851 17.661 12.0837 12.084C14.5749 9.57767 17.383 7.40762 20.4367 5.629C20.4725 5.60141 20.5103 5.57635 20.5497 5.554V5.544H20.5587C20.5638 5.53888 20.5705 5.5357 20.5777 5.535L20.5877 5.525C23.9815 3.55607 27.6434 2.09076 31.4587 1.175L31.4677 1.166C33.5416 0.656424 35.653 0.31399 37.7817 0.141998H37.8287L38.4287 0.0940018C39.3587 0.0290018 40.2887 0 41.2187 0C50.4833 0.0128469 59.4759 3.13292 66.7577 8.861C67.0992 11.3078 67.2699 13.7755 67.2687 16.246Z" fill="url(#paint1_linear_1_67)"/>
<path d="M82.4433 41.231C82.4507 46.6438 81.3878 52.0046 79.3156 57.0051C77.2435 62.0056 74.2031 66.547 70.3693 70.368L46.0993 94.638C44.8978 95.8437 43.2913 96.5603 41.5915 96.6488C39.8916 96.7373 38.2195 96.1914 36.8993 95.117H36.8903L36.8803 95.108C36.694 94.964 36.5182 94.807 36.3543 94.638L18.6143 76.898C32.6067 76.4976 46.124 71.7335 57.2755 63.2723C68.427 54.811 76.6549 43.0758 80.8083 29.708C80.8091 29.7154 80.8127 29.7221 80.8183 29.727C81.8955 33.4668 82.4425 37.3392 82.4433 41.231Z" fill="url(#paint2_linear_1_67)"/>
<g style="mix-blend-mode:screen" opacity="0.4">
<g style="mix-blend-mode:screen" opacity="0.4">
<path d="M31.4607 1.17505C31.4037 1.20305 31.1697 1.32505 30.7607 1.55105C30.3007 1.80505 29.6247 2.13304 28.7977 2.61304C28.3837 2.84804 27.9237 3.10105 27.4257 3.38305C26.9467 3.70305 26.4257 4.00304 25.8657 4.35104C24.7657 5.04604 23.5657 5.85105 22.2957 6.78505C21.6657 7.24505 21.0367 7.76204 20.3687 8.26904C19.7397 8.82304 19.0537 9.35004 18.4057 9.95104C17.0352 11.1749 15.7303 12.4703 14.4967 13.832C13.1918 15.2736 11.9742 16.792 10.8507 18.3791C10.2507 19.1591 9.76068 20.033 9.19668 20.85C8.71768 21.687 8.22968 22.42 7.72168 23.4501C6.76984 25.1979 5.94731 27.0131 5.26068 28.8811C4.90368 29.7931 4.62168 30.7321 4.30168 31.6531C4.03868 32.5931 3.75668 33.513 3.54968 34.434C3.09906 36.219 2.7571 38.0297 2.52568 39.856C2.46968 40.288 2.41335 40.7214 2.35668 41.156C2.31868 41.588 2.28101 42.0107 2.24368 42.424C2.14368 43.26 2.14968 44.068 2.09368 44.858C2.03768 45.648 2.06568 46.3891 2.03768 47.1121C2.05568 47.8451 2.06568 48.531 2.07468 49.18C2.14968 50.48 2.17468 51.632 2.28168 52.562C2.35668 53.5111 2.45068 54.2821 2.50668 54.799C2.54468 55.2401 2.57268 55.499 2.58268 55.578C-0.168508 48.1802 -0.735743 40.1476 0.948505 32.4366C2.63275 24.7256 6.49753 17.661 12.0827 12.0841C14.574 9.57771 17.3821 7.40767 20.4357 5.62904C20.4716 5.60145 20.5093 5.57639 20.5487 5.55405V5.54404H20.5577C20.5628 5.53892 20.5695 5.53574 20.5767 5.53505L20.5867 5.52505C23.9814 3.55585 27.6444 2.09053 31.4607 1.17505Z" fill="white"/>
</g>
</g>
<g style="mix-blend-mode:multiply" opacity="0.3">
<g style="mix-blend-mode:multiply" opacity="0.3">
<path d="M67.269 16.246C67.2703 23.1924 65.9032 30.0711 63.2458 36.4892C60.5884 42.9072 56.6928 48.739 51.7814 53.6513C46.87 58.5637 41.039 62.4604 34.6214 65.119C28.2038 67.7776 21.3254 69.146 14.379 69.146C13.486 69.146 12.594 69.128 11.71 69.071L14.548 68.714C15.506 68.526 16.465 68.376 17.414 68.207C18.363 68.019 19.314 67.925 20.242 67.671L23.004 66.948C24.8298 66.4738 26.6274 65.8965 28.388 65.219C28.83 65.05 29.281 64.937 29.713 64.74L30.991 64.157C31.837 63.772 32.691 63.387 33.537 63.02C34.383 62.653 35.172 62.127 35.99 61.695C36.798 61.244 37.615 60.822 38.414 60.361L40.707 58.801C41.4878 58.3191 42.2376 57.7888 42.952 57.213C43.666 56.631 44.371 56.048 45.095 55.484C45.452 55.193 45.818 54.921 46.166 54.62L47.152 53.662C47.801 53.023 48.468 52.393 49.135 51.773C49.802 51.153 50.356 50.42 50.976 49.753L52.776 47.695L54.393 45.487C55.479 44.0233 56.4806 42.4988 57.393 40.921C57.619 40.535 57.882 40.16 58.093 39.755L58.685 38.524L59.916 36.081C60.348 35.273 60.601 34.39 60.949 33.554L61.964 30.998L62.725 28.367L63.12 27.042C63.2659 26.6135 63.376 26.1737 63.449 25.727L63.975 23.096L64.257 21.781C64.357 21.339 64.369 20.822 64.435 20.353L64.735 17.453L64.885 16.128L64.96 14.738C65.026 13.065 65.017 11.393 64.941 9.71098C64.171 9.02498 63.372 8.34798 62.555 7.71098C61.493 6.88498 60.394 6.08597 59.247 5.35297C58.11 4.60097 56.936 3.89598 55.714 3.24798C55.094 2.93798 54.484 2.60898 53.854 2.30898L52.012 1.45398C57.3822 2.88894 62.4003 5.41211 66.755 8.86697C67.0972 11.3117 67.269 13.7774 67.269 16.246Z" fill="#DD2424"/>
</g>
</g>
<g style="mix-blend-mode:screen" opacity="0.4">
<g style="mix-blend-mode:screen" opacity="0.4">
<path d="M68.6132 52.356C68.0592 53.446 67.4672 54.526 66.8282 55.588C66.1612 56.612 65.4652 57.636 64.7422 58.642C63.9812 59.6 63.2102 60.577 62.3932 61.507C61.5472 62.419 60.7012 63.33 59.8182 64.207C58.8972 65.034 58.0052 65.907 57.0462 66.697C56.0692 67.477 55.1012 68.276 54.0872 68.997C53.0532 69.702 52.0292 70.425 50.9582 71.074C49.8772 71.703 48.8152 72.374 47.6972 72.934C46.5792 73.494 45.4612 74.08 44.3052 74.569C43.1402 75.029 41.9942 75.569 40.8102 75.969C39.6102 76.354 38.4332 76.786 37.2212 77.125C36.0082 77.425 34.7962 77.773 33.5752 78.025C32.3352 78.241 31.1042 78.495 29.8752 78.673C28.6252 78.804 27.3852 78.955 26.1452 79.058C25.0922 79.087 24.0452 79.133 22.9972 79.152C23.3352 79.613 23.6832 80.073 24.0212 80.534C24.6602 81.407 25.2712 82.3 25.8822 83.202C26.5022 84.085 27.0942 85.002 27.6672 85.946L18.6182 76.897C28.225 76.6365 37.6631 74.3097 46.2902 70.0749C54.9172 65.8402 62.5309 59.7968 68.6132 52.356Z" fill="white"/>
</g>
</g>
<g style="mix-blend-mode:multiply" opacity="0.3">
<g style="mix-blend-mode:multiply" opacity="0.3">
<path d="M82.4434 41.231C82.4508 46.6438 81.3879 52.0047 79.3158 57.0051C77.2437 62.0056 74.2032 66.547 70.3694 70.368L46.0994 94.638C44.8979 95.8438 43.2915 96.5603 41.5916 96.6488C39.8918 96.7374 38.2196 96.1914 36.8994 95.117C36.9274 95.127 36.9934 95.164 37.1154 95.217C37.334 95.3297 37.5603 95.4269 37.7924 95.508C38.6296 95.8224 39.5195 95.9721 40.4134 95.949C41.686 95.899 42.9126 95.4595 43.9274 94.69C44.0594 94.578 44.1914 94.465 44.3274 94.352C44.4274 94.239 44.5444 94.127 44.6474 94.014L44.8724 93.76L45.0414 93.56L45.0704 93.532L45.0514 93.541L45.0794 93.513C45.2114 93.344 45.3424 93.165 45.4794 92.987C46.0794 92.254 46.7104 91.474 47.3584 90.666C50.0084 87.443 53.1754 83.76 56.6704 79.926C58.4184 78.009 60.2404 76.046 62.1294 74.082C63.9994 72.109 65.9534 70.145 67.8894 68.182C69.7004 66.3943 71.351 64.4512 72.8224 62.375C74.2435 60.3592 75.4941 58.2285 76.5614 56.005C77.5623 53.8983 78.401 51.7183 79.0704 49.484C79.6741 47.4622 80.1451 45.4032 80.4804 43.32C80.5644 42.82 80.6114 42.305 80.6804 41.82C80.7084 41.586 80.7464 41.351 80.7744 41.125C80.8024 40.899 80.8214 40.665 80.8494 40.439C80.9434 39.528 80.9904 38.654 81.0284 37.827C81.0934 36.183 81.1034 34.727 81.0564 33.527C80.9904 32.333 80.9564 31.366 80.8874 30.717C80.8184 30.068 80.8024 29.717 80.8024 29.717C80.8033 29.7244 80.8069 29.7312 80.8124 29.736C81.8909 33.4726 82.4399 37.342 82.4434 41.231Z" fill="#DD2424"/>
</g>
</g>
<g style="mix-blend-mode:screen" opacity="0.16">
<g style="mix-blend-mode:screen" opacity="0.16">
<path d="M61.318 12.633C17.588 16.428 13.734 61.233 13.583 63.244V63.313C13.501 63.213 13.42 63.113 13.35 63.013C13.25 62.896 13.187 62.803 13.14 62.745C13.129 62.733 13.105 62.71 13.105 62.687C7.72721 55.6487 5.18595 46.8489 5.98364 38.0272C6.78133 29.2056 10.8599 21.0044 17.413 15.045C18.228 14.3 19.078 13.59 19.963 12.926C20.638 12.414 26.134 9.17698 26.863 8.85098C28.085 8.3108 29.3367 7.84037 30.612 7.44197C39.1149 4.81627 48.2905 5.44717 56.354 9.21197C57.627 9.80797 61.201 11.154 61.318 12.633Z" fill="white"/>
</g>
</g>
<defs>
<linearGradient id="paint0_linear_1_67" x1="108" y1="52" x2="279" y2="52" gradientUnits="userSpaceOnUse">
<stop stop-color="#FF8008"/>
<stop offset="1" stop-color="#FFC837"/>
</linearGradient>
<linearGradient id="paint1_linear_1_67" x1="12.9164" y1="16.7333" x2="53.5676" y2="49.7895" gradientUnits="userSpaceOnUse">
<stop stop-color="#FF8008"/>
<stop offset="1" stop-color="#FFC837"/>
</linearGradient>
<linearGradient id="paint2_linear_1_67" x1="26.912" y1="84.8749" x2="75.6745" y2="57.4549" gradientUnits="userSpaceOnUse">
<stop stop-color="#FF8008"/>
<stop offset="1" stop-color="#FFC837"/>
</linearGradient>
</defs>
</svg>
